# xmcd CD database file
#
# Track frame offsets:
#	150
#	36075
#	65250
#	94950
#	110293
#	140048
#	167183
#	193475
#	239697
#	258806
#
# Disc length: 3712 seconds
#
# Revision: 0
# Processed by: cddbd v1.5.2PL0 Copyright (c) Steve Scherf et al.
# Submitted via: CDex 1.50beta8
#
DISCID=930e7e0a
DTITLE=Andrey Klimkovsky - Музыка Небесных Сфер - 4 - Под звездным небом Испании
DYEAR=1998
DGENRE=New Age
TTITLE0=Concerto De Aranjuez (Redrigo)
TTITLE1=Вечерняя серенада
TTITLE2=Крылья небесных каравелл
TTITLE3=Ночная песня гор
TTITLE4=Sombrero
TTITLE5=Ночь красной Луны
TTITLE6=Небесная коррида
TTITLE7=Колумбиада (в трех частях)
TTITLE8=Звездный пастух
TTITLE9=В яблоневом саду Атлантиды
EXTD=YEAR: 1998
EXTT0=
EXTT1=
EXTT2=
EXTT3=
EXTT4=
EXTT5=
EXTT6=
EXTT7=
EXTT8=
EXTT9=
PLAYORDER=
